<mxfile host="app.diagrams.net" modified="2024-05-16T11:28:44.448Z" agent="Mozilla/5.0 (Windows NT 10.0; Win64; x64) AppleWebKit/537.36 (KHTML, like Gecko) Chrome/124.0.0.0 Safari/537.36" etag="glCF6Zco_3mvj47WJ7c2" version="24.4.2" type="github">
  <diagram name="第 1 页" id="iLzcFQZQIDbkhLPEayTF">
    <mxGraphModel dx="1285" dy="640" grid="1" gridSize="1" guides="1" tooltips="1" connect="1" arrows="1" fold="1" page="1" pageScale="1" pageWidth="3300" pageHeight="4681" math="0" shadow="0">
      <root>
        <mxCell id="0" />
        <mxCell id="1" parent="0" />
        <mxCell id="XwM3Bp8nAO9JLWANIdk1-1" value="" style="html=1;shape=mxgraph.electrical.electro-mechanical.singleSwitch;aspect=fixed;elSwitchState=off;" vertex="1" parent="1">
          <mxGeometry x="991" y="1450" width="75" height="20" as="geometry" />
        </mxCell>
        <mxCell id="XwM3Bp8nAO9JLWANIdk1-2" value="" style="html=1;shape=mxgraph.electrical.electro-mechanical.singleSwitch;aspect=fixed;elSwitchState=off;direction=west;flipH=1;" vertex="1" parent="1">
          <mxGeometry x="991" y="1570" width="75" height="20" as="geometry" />
        </mxCell>
        <mxCell id="XwM3Bp8nAO9JLWANIdk1-3" value="clks" style="text;html=1;align=center;verticalAlign=middle;resizable=0;points=[];autosize=1;strokeColor=none;fillColor=none;fontFamily=Times New Roman;fontStyle=1;fontSize=18;" vertex="1" parent="1">
          <mxGeometry x="1003.5" y="1370" width="50" height="40" as="geometry" />
        </mxCell>
        <mxCell id="XwM3Bp8nAO9JLWANIdk1-4" style="edgeStyle=orthogonalEdgeStyle;rounded=0;orthogonalLoop=1;jettySize=auto;html=1;entryX=0.51;entryY=0.331;entryDx=0;entryDy=0;entryPerimeter=0;" edge="1" parent="1" source="XwM3Bp8nAO9JLWANIdk1-3" target="XwM3Bp8nAO9JLWANIdk1-1">
          <mxGeometry relative="1" as="geometry" />
        </mxCell>
        <mxCell id="XwM3Bp8nAO9JLWANIdk1-5" style="edgeStyle=orthogonalEdgeStyle;rounded=0;orthogonalLoop=1;jettySize=auto;html=1;" edge="1" parent="1" source="XwM3Bp8nAO9JLWANIdk1-6" target="XwM3Bp8nAO9JLWANIdk1-2">
          <mxGeometry relative="1" as="geometry" />
        </mxCell>
        <mxCell id="XwM3Bp8nAO9JLWANIdk1-6" value="clks" style="text;html=1;align=center;verticalAlign=middle;resizable=0;points=[];autosize=1;strokeColor=none;fillColor=none;fontFamily=Times New Roman;fontStyle=1;fontSize=18;" vertex="1" parent="1">
          <mxGeometry x="1003.5" y="1630" width="50" height="40" as="geometry" />
        </mxCell>
        <mxCell id="XwM3Bp8nAO9JLWANIdk1-7" style="edgeStyle=orthogonalEdgeStyle;rounded=0;orthogonalLoop=1;jettySize=auto;html=1;entryX=0;entryY=0.8;entryDx=0;entryDy=0;" edge="1" parent="1" target="XwM3Bp8nAO9JLWANIdk1-1">
          <mxGeometry relative="1" as="geometry">
            <mxPoint x="907" y="1466" as="sourcePoint" />
          </mxGeometry>
        </mxCell>
        <mxCell id="XwM3Bp8nAO9JLWANIdk1-8" value="vin" style="text;html=1;align=center;verticalAlign=middle;resizable=0;points=[];autosize=1;strokeColor=none;fillColor=none;fontFamily=Times New Roman;fontStyle=1;fontSize=18;" vertex="1" parent="1">
          <mxGeometry x="860" y="1554" width="50" height="40" as="geometry" />
        </mxCell>
        <mxCell id="XwM3Bp8nAO9JLWANIdk1-9" style="edgeStyle=orthogonalEdgeStyle;rounded=0;orthogonalLoop=1;jettySize=auto;html=1;entryX=1;entryY=0.8;entryDx=0;entryDy=0;" edge="1" parent="1" source="XwM3Bp8nAO9JLWANIdk1-8" target="XwM3Bp8nAO9JLWANIdk1-2">
          <mxGeometry relative="1" as="geometry">
            <mxPoint x="988" y="1573" as="targetPoint" />
          </mxGeometry>
        </mxCell>
        <mxCell id="XwM3Bp8nAO9JLWANIdk1-10" value="vip" style="text;html=1;align=center;verticalAlign=middle;resizable=0;points=[];autosize=1;strokeColor=none;fillColor=none;fontFamily=Times New Roman;fontStyle=1;fontSize=18;" vertex="1" parent="1">
          <mxGeometry x="864" y="1447" width="42" height="35" as="geometry" />
        </mxCell>
        <mxCell id="XwM3Bp8nAO9JLWANIdk1-11" value="" style="pointerEvents=1;verticalLabelPosition=bottom;shadow=0;dashed=0;align=center;html=1;verticalAlign=top;shape=mxgraph.electrical.capacitors.capacitor_1;direction=south;" vertex="1" parent="1">
          <mxGeometry x="1181" y="1356" width="60" height="100" as="geometry" />
        </mxCell>
        <mxCell id="XwM3Bp8nAO9JLWANIdk1-12" value="" style="pointerEvents=1;verticalLabelPosition=bottom;shadow=0;dashed=0;align=center;html=1;verticalAlign=top;shape=mxgraph.electrical.capacitors.capacitor_1;direction=south;" vertex="1" parent="1">
          <mxGeometry x="1352.5" y="1356" width="60" height="100" as="geometry" />
        </mxCell>
        <mxCell id="XwM3Bp8nAO9JLWANIdk1-13" value="" style="pointerEvents=1;verticalLabelPosition=bottom;shadow=0;dashed=0;align=center;html=1;verticalAlign=top;shape=mxgraph.electrical.capacitors.capacitor_1;direction=south;" vertex="1" parent="1">
          <mxGeometry x="1670" y="1283" width="60" height="100" as="geometry" />
        </mxCell>
        <mxCell id="XwM3Bp8nAO9JLWANIdk1-14" value="" style="pointerEvents=1;verticalLabelPosition=bottom;shadow=0;dashed=0;align=center;html=1;verticalAlign=top;shape=mxgraph.electrical.capacitors.capacitor_1;direction=south;" vertex="1" parent="1">
          <mxGeometry x="1840" y="1357" width="60" height="100" as="geometry" />
        </mxCell>
        <mxCell id="XwM3Bp8nAO9JLWANIdk1-16" value="" style="verticalLabelPosition=bottom;shadow=0;dashed=0;align=center;html=1;verticalAlign=top;shape=mxgraph.electrical.logic_gates.inverter_2;direction=south;" vertex="1" parent="1">
          <mxGeometry x="1188" y="1090" width="47" height="87" as="geometry" />
        </mxCell>
        <mxCell id="XwM3Bp8nAO9JLWANIdk1-17" value="" style="verticalLabelPosition=bottom;shadow=0;dashed=0;align=center;html=1;verticalAlign=top;shape=mxgraph.electrical.logic_gates.inverter_2;direction=south;" vertex="1" parent="1">
          <mxGeometry x="1188" y="1221" width="47" height="87" as="geometry" />
        </mxCell>
        <mxCell id="XwM3Bp8nAO9JLWANIdk1-18" value="" style="verticalLabelPosition=bottom;shadow=0;dashed=0;align=center;html=1;verticalAlign=top;shape=mxgraph.electrical.logic_gates.inverter_2;direction=south;" vertex="1" parent="1">
          <mxGeometry x="1359" y="1090" width="47" height="87" as="geometry" />
        </mxCell>
        <mxCell id="XwM3Bp8nAO9JLWANIdk1-19" value="" style="verticalLabelPosition=bottom;shadow=0;dashed=0;align=center;html=1;verticalAlign=top;shape=mxgraph.electrical.logic_gates.inverter_2;direction=south;" vertex="1" parent="1">
          <mxGeometry x="1359" y="1221" width="47" height="87" as="geometry" />
        </mxCell>
        <mxCell id="XwM3Bp8nAO9JLWANIdk1-20" value="" style="pointerEvents=1;verticalLabelPosition=bottom;shadow=0;dashed=0;align=center;html=1;verticalAlign=top;shape=mxgraph.electrical.capacitors.capacitor_1;direction=south;" vertex="1" parent="1">
          <mxGeometry x="1517" y="1356" width="60" height="100" as="geometry" />
        </mxCell>
        <mxCell id="XwM3Bp8nAO9JLWANIdk1-21" value="" style="verticalLabelPosition=bottom;shadow=0;dashed=0;align=center;html=1;verticalAlign=top;shape=mxgraph.electrical.logic_gates.inverter_2;direction=south;" vertex="1" parent="1">
          <mxGeometry x="1523.5" y="1090" width="47" height="87" as="geometry" />
        </mxCell>
        <mxCell id="XwM3Bp8nAO9JLWANIdk1-22" value="" style="verticalLabelPosition=bottom;shadow=0;dashed=0;align=center;html=1;verticalAlign=top;shape=mxgraph.electrical.logic_gates.inverter_2;direction=south;" vertex="1" parent="1">
          <mxGeometry x="1523.5" y="1221" width="47" height="87" as="geometry" />
        </mxCell>
        <mxCell id="XwM3Bp8nAO9JLWANIdk1-24" style="edgeStyle=orthogonalEdgeStyle;rounded=0;orthogonalLoop=1;jettySize=auto;html=1;entryX=0.502;entryY=0.812;entryDx=0;entryDy=0;entryPerimeter=0;" edge="1" parent="1" source="XwM3Bp8nAO9JLWANIdk1-23">
          <mxGeometry relative="1" as="geometry">
            <mxPoint x="1198.836" y="1263.6739999999998" as="targetPoint" />
            <Array as="points">
              <mxPoint x="1193" y="1264" />
            </Array>
          </mxGeometry>
        </mxCell>
        <mxCell id="XwM3Bp8nAO9JLWANIdk1-23" value="Vref" style="text;html=1;align=center;verticalAlign=middle;resizable=0;points=[];autosize=1;strokeColor=none;fillColor=none;fontFamily=Times New Roman;fontStyle=1;fontSize=16;" vertex="1" parent="1">
          <mxGeometry x="1123" y="1248.5" width="47" height="32" as="geometry" />
        </mxCell>
        <mxCell id="XwM3Bp8nAO9JLWANIdk1-26" value="gnd" style="text;html=1;align=center;verticalAlign=middle;resizable=0;points=[];autosize=1;strokeColor=none;fillColor=none;fontFamily=Times New Roman;fontStyle=1;fontSize=16;" vertex="1" parent="1">
          <mxGeometry x="1249" y="1247" width="43" height="32" as="geometry" />
        </mxCell>
        <mxCell id="XwM3Bp8nAO9JLWANIdk1-27" style="edgeStyle=orthogonalEdgeStyle;rounded=0;orthogonalLoop=1;jettySize=auto;html=1;entryX=0.497;entryY=0.291;entryDx=0;entryDy=0;entryPerimeter=0;" edge="1" parent="1" source="XwM3Bp8nAO9JLWANIdk1-26">
          <mxGeometry relative="1" as="geometry">
            <mxPoint x="1223.3229999999999" y="1263.239" as="targetPoint" />
          </mxGeometry>
        </mxCell>
        <mxCell id="XwM3Bp8nAO9JLWANIdk1-28" style="edgeStyle=orthogonalEdgeStyle;rounded=0;orthogonalLoop=1;jettySize=auto;html=1;entryX=0.502;entryY=0.812;entryDx=0;entryDy=0;entryPerimeter=0;" edge="1" parent="1" source="XwM3Bp8nAO9JLWANIdk1-29">
          <mxGeometry relative="1" as="geometry">
            <mxPoint x="1199.836" y="1132.6739999999998" as="targetPoint" />
            <Array as="points">
              <mxPoint x="1194" y="1133" />
            </Array>
          </mxGeometry>
        </mxCell>
        <mxCell id="XwM3Bp8nAO9JLWANIdk1-29" value="VDD" style="text;html=1;align=center;verticalAlign=middle;resizable=0;points=[];autosize=1;strokeColor=none;fillColor=none;fontFamily=Times New Roman;fontStyle=1;fontSize=16;" vertex="1" parent="1">
          <mxGeometry x="1119.5" y="1115" width="54" height="32" as="geometry" />
        </mxCell>
        <mxCell id="XwM3Bp8nAO9JLWANIdk1-30" value="gnd" style="text;html=1;align=center;verticalAlign=middle;resizable=0;points=[];autosize=1;strokeColor=none;fillColor=none;fontFamily=Times New Roman;fontStyle=1;fontSize=16;" vertex="1" parent="1">
          <mxGeometry x="1248" y="1116.5" width="43" height="32" as="geometry" />
        </mxCell>
        <mxCell id="XwM3Bp8nAO9JLWANIdk1-31" style="edgeStyle=orthogonalEdgeStyle;rounded=0;orthogonalLoop=1;jettySize=auto;html=1;entryX=0.497;entryY=0.291;entryDx=0;entryDy=0;entryPerimeter=0;" edge="1" parent="1" source="XwM3Bp8nAO9JLWANIdk1-30">
          <mxGeometry relative="1" as="geometry">
            <mxPoint x="1224.3229999999999" y="1132.239" as="targetPoint" />
          </mxGeometry>
        </mxCell>
        <mxCell id="XwM3Bp8nAO9JLWANIdk1-32" style="edgeStyle=orthogonalEdgeStyle;rounded=0;orthogonalLoop=1;jettySize=auto;html=1;entryX=0.502;entryY=0.812;entryDx=0;entryDy=0;entryPerimeter=0;" edge="1" parent="1">
          <mxGeometry relative="1" as="geometry">
            <mxPoint x="1370.836" y="1131.1739999999998" as="targetPoint" />
            <Array as="points">
              <mxPoint x="1365" y="1131.5" />
            </Array>
            <mxPoint x="1337.0000000000002" y="1131.168918918919" as="sourcePoint" />
          </mxGeometry>
        </mxCell>
        <mxCell id="XwM3Bp8nAO9JLWANIdk1-33" value="VDD" style="text;html=1;align=center;verticalAlign=middle;resizable=0;points=[];autosize=1;strokeColor=none;fillColor=none;fontFamily=Times New Roman;fontStyle=1;fontSize=16;" vertex="1" parent="1">
          <mxGeometry x="1295" y="1114" width="54" height="32" as="geometry" />
        </mxCell>
        <mxCell id="XwM3Bp8nAO9JLWANIdk1-34" value="gnd" style="text;html=1;align=center;verticalAlign=middle;resizable=0;points=[];autosize=1;strokeColor=none;fillColor=none;fontFamily=Times New Roman;fontStyle=1;fontSize=16;" vertex="1" parent="1">
          <mxGeometry x="1425" y="1115" width="43" height="32" as="geometry" />
        </mxCell>
        <mxCell id="XwM3Bp8nAO9JLWANIdk1-35" style="edgeStyle=orthogonalEdgeStyle;rounded=0;orthogonalLoop=1;jettySize=auto;html=1;entryX=0.497;entryY=0.291;entryDx=0;entryDy=0;entryPerimeter=0;" edge="1" parent="1" source="XwM3Bp8nAO9JLWANIdk1-34">
          <mxGeometry relative="1" as="geometry">
            <mxPoint x="1395.3229999999999" y="1130.739" as="targetPoint" />
          </mxGeometry>
        </mxCell>
        <mxCell id="XwM3Bp8nAO9JLWANIdk1-36" style="edgeStyle=orthogonalEdgeStyle;rounded=0;orthogonalLoop=1;jettySize=auto;html=1;entryX=0.502;entryY=0.812;entryDx=0;entryDy=0;entryPerimeter=0;" edge="1" parent="1">
          <mxGeometry relative="1" as="geometry">
            <mxPoint x="1533.836" y="1130.1739999999998" as="targetPoint" />
            <Array as="points">
              <mxPoint x="1528" y="1130.5" />
            </Array>
            <mxPoint x="1500.0000000000002" y="1130.168918918919" as="sourcePoint" />
          </mxGeometry>
        </mxCell>
        <mxCell id="XwM3Bp8nAO9JLWANIdk1-37" value="gnd" style="text;html=1;align=center;verticalAlign=middle;resizable=0;points=[];autosize=1;strokeColor=none;fillColor=none;fontFamily=Times New Roman;fontStyle=1;fontSize=16;" vertex="1" parent="1">
          <mxGeometry x="1588" y="1114" width="43" height="32" as="geometry" />
        </mxCell>
        <mxCell id="XwM3Bp8nAO9JLWANIdk1-38" style="edgeStyle=orthogonalEdgeStyle;rounded=0;orthogonalLoop=1;jettySize=auto;html=1;entryX=0.497;entryY=0.291;entryDx=0;entryDy=0;entryPerimeter=0;" edge="1" parent="1" source="XwM3Bp8nAO9JLWANIdk1-37">
          <mxGeometry relative="1" as="geometry">
            <mxPoint x="1558.3229999999999" y="1129.739" as="targetPoint" />
          </mxGeometry>
        </mxCell>
        <mxCell id="XwM3Bp8nAO9JLWANIdk1-39" value="VDD" style="text;html=1;align=center;verticalAlign=middle;resizable=0;points=[];autosize=1;strokeColor=none;fillColor=none;fontFamily=Times New Roman;fontStyle=1;fontSize=16;" vertex="1" parent="1">
          <mxGeometry x="1465" y="1102" width="54" height="32" as="geometry" />
        </mxCell>
        <mxCell id="XwM3Bp8nAO9JLWANIdk1-40" style="edgeStyle=orthogonalEdgeStyle;rounded=0;orthogonalLoop=1;jettySize=auto;html=1;entryX=0.502;entryY=0.812;entryDx=0;entryDy=0;entryPerimeter=0;" edge="1" parent="1" source="XwM3Bp8nAO9JLWANIdk1-41">
          <mxGeometry relative="1" as="geometry">
            <mxPoint x="1370.836" y="1261.6739999999998" as="targetPoint" />
            <Array as="points">
              <mxPoint x="1365" y="1262" />
            </Array>
          </mxGeometry>
        </mxCell>
        <mxCell id="XwM3Bp8nAO9JLWANIdk1-41" value="Vref" style="text;html=1;align=center;verticalAlign=middle;resizable=0;points=[];autosize=1;strokeColor=none;fillColor=none;fontFamily=Times New Roman;fontStyle=1;fontSize=16;" vertex="1" parent="1">
          <mxGeometry x="1295" y="1246.5" width="47" height="32" as="geometry" />
        </mxCell>
        <mxCell id="XwM3Bp8nAO9JLWANIdk1-42" value="gnd" style="text;html=1;align=center;verticalAlign=middle;resizable=0;points=[];autosize=1;strokeColor=none;fillColor=none;fontFamily=Times New Roman;fontStyle=1;fontSize=16;" vertex="1" parent="1">
          <mxGeometry x="1421" y="1245" width="43" height="32" as="geometry" />
        </mxCell>
        <mxCell id="XwM3Bp8nAO9JLWANIdk1-43" style="edgeStyle=orthogonalEdgeStyle;rounded=0;orthogonalLoop=1;jettySize=auto;html=1;entryX=0.497;entryY=0.291;entryDx=0;entryDy=0;entryPerimeter=0;" edge="1" parent="1" source="XwM3Bp8nAO9JLWANIdk1-42">
          <mxGeometry relative="1" as="geometry">
            <mxPoint x="1395.3229999999999" y="1261.239" as="targetPoint" />
          </mxGeometry>
        </mxCell>
        <mxCell id="XwM3Bp8nAO9JLWANIdk1-44" style="edgeStyle=orthogonalEdgeStyle;rounded=0;orthogonalLoop=1;jettySize=auto;html=1;entryX=0.502;entryY=0.812;entryDx=0;entryDy=0;entryPerimeter=0;" edge="1" parent="1" source="XwM3Bp8nAO9JLWANIdk1-45">
          <mxGeometry relative="1" as="geometry">
            <mxPoint x="1533.836" y="1260.1739999999998" as="targetPoint" />
            <Array as="points">
              <mxPoint x="1528" y="1260.5" />
            </Array>
          </mxGeometry>
        </mxCell>
        <mxCell id="XwM3Bp8nAO9JLWANIdk1-45" value="Vref" style="text;html=1;align=center;verticalAlign=middle;resizable=0;points=[];autosize=1;strokeColor=none;fillColor=none;fontFamily=Times New Roman;fontStyle=1;fontSize=16;" vertex="1" parent="1">
          <mxGeometry x="1458" y="1245" width="47" height="32" as="geometry" />
        </mxCell>
        <mxCell id="XwM3Bp8nAO9JLWANIdk1-46" value="gnd" style="text;html=1;align=center;verticalAlign=middle;resizable=0;points=[];autosize=1;strokeColor=none;fillColor=none;fontFamily=Times New Roman;fontStyle=1;fontSize=16;" vertex="1" parent="1">
          <mxGeometry x="1584" y="1243.5" width="43" height="32" as="geometry" />
        </mxCell>
        <mxCell id="XwM3Bp8nAO9JLWANIdk1-47" style="edgeStyle=orthogonalEdgeStyle;rounded=0;orthogonalLoop=1;jettySize=auto;html=1;entryX=0.497;entryY=0.291;entryDx=0;entryDy=0;entryPerimeter=0;" edge="1" parent="1" source="XwM3Bp8nAO9JLWANIdk1-46">
          <mxGeometry relative="1" as="geometry">
            <mxPoint x="1558.3229999999999" y="1259.739" as="targetPoint" />
          </mxGeometry>
        </mxCell>
        <mxCell id="XwM3Bp8nAO9JLWANIdk1-48" value="" style="pointerEvents=1;verticalLabelPosition=bottom;shadow=0;dashed=0;align=center;html=1;verticalAlign=top;shape=mxgraph.electrical.signal_sources.protective_earth;direction=west;" vertex="1" parent="1">
          <mxGeometry x="1687.5" y="1182" width="25" height="20" as="geometry" />
        </mxCell>
        <mxCell id="XwM3Bp8nAO9JLWANIdk1-49" value="" style="pointerEvents=1;verticalLabelPosition=bottom;shadow=0;dashed=0;align=center;html=1;verticalAlign=top;shape=mxgraph.electrical.signal_sources.protective_earth;direction=west;" vertex="1" parent="1">
          <mxGeometry x="1857.5" y="1268" width="25" height="20" as="geometry" />
        </mxCell>
        <mxCell id="XwM3Bp8nAO9JLWANIdk1-50" value="" style="pointerEvents=1;verticalLabelPosition=bottom;shadow=0;dashed=0;align=center;html=1;verticalAlign=top;shape=mxgraph.electrical.capacitors.capacitor_1;direction=south;" vertex="1" parent="1">
          <mxGeometry x="1184.5" y="1622" width="60" height="100" as="geometry" />
        </mxCell>
        <mxCell id="XwM3Bp8nAO9JLWANIdk1-51" value="" style="pointerEvents=1;verticalLabelPosition=bottom;shadow=0;dashed=0;align=center;html=1;verticalAlign=top;shape=mxgraph.electrical.capacitors.capacitor_1;direction=south;" vertex="1" parent="1">
          <mxGeometry x="1356" y="1622" width="60" height="100" as="geometry" />
        </mxCell>
        <mxCell id="XwM3Bp8nAO9JLWANIdk1-52" value="" style="pointerEvents=1;verticalLabelPosition=bottom;shadow=0;dashed=0;align=center;html=1;verticalAlign=top;shape=mxgraph.electrical.capacitors.capacitor_1;direction=south;" vertex="1" parent="1">
          <mxGeometry x="1673.5" y="1695" width="60" height="100" as="geometry" />
        </mxCell>
        <mxCell id="XwM3Bp8nAO9JLWANIdk1-53" value="" style="pointerEvents=1;verticalLabelPosition=bottom;shadow=0;dashed=0;align=center;html=1;verticalAlign=top;shape=mxgraph.electrical.capacitors.capacitor_1;direction=south;" vertex="1" parent="1">
          <mxGeometry x="1843.5" y="1621" width="60" height="100" as="geometry" />
        </mxCell>
        <mxCell id="XwM3Bp8nAO9JLWANIdk1-54" value="" style="verticalLabelPosition=bottom;shadow=0;dashed=0;align=center;html=1;verticalAlign=top;shape=mxgraph.electrical.logic_gates.inverter_2;direction=south;flipV=1;" vertex="1" parent="1">
          <mxGeometry x="1191.5" y="1901" width="47" height="87" as="geometry" />
        </mxCell>
        <mxCell id="XwM3Bp8nAO9JLWANIdk1-55" value="" style="verticalLabelPosition=bottom;shadow=0;dashed=0;align=center;html=1;verticalAlign=top;shape=mxgraph.electrical.logic_gates.inverter_2;direction=north;" vertex="1" parent="1">
          <mxGeometry x="1191.5" y="1770" width="47" height="87" as="geometry" />
        </mxCell>
        <mxCell id="XwM3Bp8nAO9JLWANIdk1-56" value="" style="verticalLabelPosition=bottom;shadow=0;dashed=0;align=center;html=1;verticalAlign=top;shape=mxgraph.electrical.logic_gates.inverter_2;direction=south;flipV=1;" vertex="1" parent="1">
          <mxGeometry x="1362.5" y="1901" width="47" height="87" as="geometry" />
        </mxCell>
        <mxCell id="XwM3Bp8nAO9JLWANIdk1-57" value="" style="verticalLabelPosition=bottom;shadow=0;dashed=0;align=center;html=1;verticalAlign=top;shape=mxgraph.electrical.logic_gates.inverter_2;direction=south;flipV=1;" vertex="1" parent="1">
          <mxGeometry x="1362.5" y="1770" width="47" height="87" as="geometry" />
        </mxCell>
        <mxCell id="XwM3Bp8nAO9JLWANIdk1-58" value="" style="pointerEvents=1;verticalLabelPosition=bottom;shadow=0;dashed=0;align=center;html=1;verticalAlign=top;shape=mxgraph.electrical.capacitors.capacitor_1;direction=south;" vertex="1" parent="1">
          <mxGeometry x="1520.5" y="1622" width="60" height="100" as="geometry" />
        </mxCell>
        <mxCell id="XwM3Bp8nAO9JLWANIdk1-59" value="" style="verticalLabelPosition=bottom;shadow=0;dashed=0;align=center;html=1;verticalAlign=top;shape=mxgraph.electrical.logic_gates.inverter_2;direction=south;flipV=1;" vertex="1" parent="1">
          <mxGeometry x="1527" y="1901" width="47" height="87" as="geometry" />
        </mxCell>
        <mxCell id="XwM3Bp8nAO9JLWANIdk1-60" value="" style="verticalLabelPosition=bottom;shadow=0;dashed=0;align=center;html=1;verticalAlign=top;shape=mxgraph.electrical.logic_gates.inverter_2;direction=south;flipV=1;" vertex="1" parent="1">
          <mxGeometry x="1527" y="1770" width="47" height="87" as="geometry" />
        </mxCell>
        <mxCell id="XwM3Bp8nAO9JLWANIdk1-61" style="edgeStyle=orthogonalEdgeStyle;rounded=0;orthogonalLoop=1;jettySize=auto;html=1;entryX=0.502;entryY=0.812;entryDx=0;entryDy=0;entryPerimeter=0;" edge="1" parent="1" source="XwM3Bp8nAO9JLWANIdk1-62">
          <mxGeometry relative="1" as="geometry">
            <mxPoint x="1202.336" y="1814.3260000000002" as="targetPoint" />
            <Array as="points">
              <mxPoint x="1196.5" y="1814" />
            </Array>
          </mxGeometry>
        </mxCell>
        <mxCell id="XwM3Bp8nAO9JLWANIdk1-62" value="Vref" style="text;html=1;align=center;verticalAlign=middle;resizable=0;points=[];autosize=1;strokeColor=none;fillColor=none;fontFamily=Times New Roman;fontStyle=1;fontSize=16;" vertex="1" parent="1">
          <mxGeometry x="1126.5" y="1797.5" width="47" height="32" as="geometry" />
        </mxCell>
        <mxCell id="XwM3Bp8nAO9JLWANIdk1-63" value="gnd" style="text;html=1;align=center;verticalAlign=middle;resizable=0;points=[];autosize=1;strokeColor=none;fillColor=none;fontFamily=Times New Roman;fontStyle=1;fontSize=16;" vertex="1" parent="1">
          <mxGeometry x="1252.5" y="1799" width="43" height="32" as="geometry" />
        </mxCell>
        <mxCell id="XwM3Bp8nAO9JLWANIdk1-64" style="edgeStyle=orthogonalEdgeStyle;rounded=0;orthogonalLoop=1;jettySize=auto;html=1;entryX=0.497;entryY=0.291;entryDx=0;entryDy=0;entryPerimeter=0;" edge="1" parent="1" source="XwM3Bp8nAO9JLWANIdk1-63">
          <mxGeometry relative="1" as="geometry">
            <mxPoint x="1226.8229999999999" y="1814.761" as="targetPoint" />
          </mxGeometry>
        </mxCell>
        <mxCell id="XwM3Bp8nAO9JLWANIdk1-65" style="edgeStyle=orthogonalEdgeStyle;rounded=0;orthogonalLoop=1;jettySize=auto;html=1;entryX=0.502;entryY=0.812;entryDx=0;entryDy=0;entryPerimeter=0;" edge="1" parent="1" source="XwM3Bp8nAO9JLWANIdk1-66">
          <mxGeometry relative="1" as="geometry">
            <mxPoint x="1203.336" y="1945.326" as="targetPoint" />
            <Array as="points">
              <mxPoint x="1197.5" y="1945" />
            </Array>
          </mxGeometry>
        </mxCell>
        <mxCell id="XwM3Bp8nAO9JLWANIdk1-66" value="VDD" style="text;html=1;align=center;verticalAlign=middle;resizable=0;points=[];autosize=1;strokeColor=none;fillColor=none;fontFamily=Times New Roman;fontStyle=1;fontSize=16;" vertex="1" parent="1">
          <mxGeometry x="1123" y="1931" width="54" height="32" as="geometry" />
        </mxCell>
        <mxCell id="XwM3Bp8nAO9JLWANIdk1-67" value="gnd" style="text;html=1;align=center;verticalAlign=middle;resizable=0;points=[];autosize=1;strokeColor=none;fillColor=none;fontFamily=Times New Roman;fontStyle=1;fontSize=16;" vertex="1" parent="1">
          <mxGeometry x="1251.5" y="1929.5" width="43" height="32" as="geometry" />
        </mxCell>
        <mxCell id="XwM3Bp8nAO9JLWANIdk1-68" style="edgeStyle=orthogonalEdgeStyle;rounded=0;orthogonalLoop=1;jettySize=auto;html=1;entryX=0.497;entryY=0.291;entryDx=0;entryDy=0;entryPerimeter=0;" edge="1" parent="1" source="XwM3Bp8nAO9JLWANIdk1-67">
          <mxGeometry relative="1" as="geometry">
            <mxPoint x="1227.8229999999999" y="1945.761" as="targetPoint" />
          </mxGeometry>
        </mxCell>
        <mxCell id="XwM3Bp8nAO9JLWANIdk1-69" style="edgeStyle=orthogonalEdgeStyle;rounded=0;orthogonalLoop=1;jettySize=auto;html=1;entryX=0.502;entryY=0.812;entryDx=0;entryDy=0;entryPerimeter=0;" edge="1" parent="1">
          <mxGeometry relative="1" as="geometry">
            <mxPoint x="1374.336" y="1946.826" as="targetPoint" />
            <Array as="points">
              <mxPoint x="1368.5" y="1946.5" />
            </Array>
            <mxPoint x="1340.5000000000002" y="1946.8310810810808" as="sourcePoint" />
          </mxGeometry>
        </mxCell>
        <mxCell id="XwM3Bp8nAO9JLWANIdk1-70" value="VDD" style="text;html=1;align=center;verticalAlign=middle;resizable=0;points=[];autosize=1;strokeColor=none;fillColor=none;fontFamily=Times New Roman;fontStyle=1;fontSize=16;" vertex="1" parent="1">
          <mxGeometry x="1298.5" y="1932" width="54" height="32" as="geometry" />
        </mxCell>
        <mxCell id="XwM3Bp8nAO9JLWANIdk1-71" value="gnd" style="text;html=1;align=center;verticalAlign=middle;resizable=0;points=[];autosize=1;strokeColor=none;fillColor=none;fontFamily=Times New Roman;fontStyle=1;fontSize=16;" vertex="1" parent="1">
          <mxGeometry x="1428.5" y="1931" width="43" height="32" as="geometry" />
        </mxCell>
        <mxCell id="XwM3Bp8nAO9JLWANIdk1-72" style="edgeStyle=orthogonalEdgeStyle;rounded=0;orthogonalLoop=1;jettySize=auto;html=1;entryX=0.497;entryY=0.291;entryDx=0;entryDy=0;entryPerimeter=0;" edge="1" parent="1" source="XwM3Bp8nAO9JLWANIdk1-71">
          <mxGeometry relative="1" as="geometry">
            <mxPoint x="1398.8229999999999" y="1947.261" as="targetPoint" />
          </mxGeometry>
        </mxCell>
        <mxCell id="XwM3Bp8nAO9JLWANIdk1-73" style="edgeStyle=orthogonalEdgeStyle;rounded=0;orthogonalLoop=1;jettySize=auto;html=1;entryX=0.502;entryY=0.812;entryDx=0;entryDy=0;entryPerimeter=0;" edge="1" parent="1">
          <mxGeometry relative="1" as="geometry">
            <mxPoint x="1537.336" y="1947.826" as="targetPoint" />
            <Array as="points">
              <mxPoint x="1531.5" y="1947.5" />
            </Array>
            <mxPoint x="1503.5000000000002" y="1947.8310810810808" as="sourcePoint" />
          </mxGeometry>
        </mxCell>
        <mxCell id="XwM3Bp8nAO9JLWANIdk1-74" value="gnd" style="text;html=1;align=center;verticalAlign=middle;resizable=0;points=[];autosize=1;strokeColor=none;fillColor=none;fontFamily=Times New Roman;fontStyle=1;fontSize=16;" vertex="1" parent="1">
          <mxGeometry x="1591.5" y="1932" width="43" height="32" as="geometry" />
        </mxCell>
        <mxCell id="XwM3Bp8nAO9JLWANIdk1-75" style="edgeStyle=orthogonalEdgeStyle;rounded=0;orthogonalLoop=1;jettySize=auto;html=1;entryX=0.497;entryY=0.291;entryDx=0;entryDy=0;entryPerimeter=0;" edge="1" parent="1" source="XwM3Bp8nAO9JLWANIdk1-74">
          <mxGeometry relative="1" as="geometry">
            <mxPoint x="1561.8229999999999" y="1948.261" as="targetPoint" />
          </mxGeometry>
        </mxCell>
        <mxCell id="XwM3Bp8nAO9JLWANIdk1-76" value="VDD" style="text;html=1;align=center;verticalAlign=middle;resizable=0;points=[];autosize=1;strokeColor=none;fillColor=none;fontFamily=Times New Roman;fontStyle=1;fontSize=16;" vertex="1" parent="1">
          <mxGeometry x="1468.5" y="1944" width="54" height="32" as="geometry" />
        </mxCell>
        <mxCell id="XwM3Bp8nAO9JLWANIdk1-77" style="edgeStyle=orthogonalEdgeStyle;rounded=0;orthogonalLoop=1;jettySize=auto;html=1;entryX=0.502;entryY=0.812;entryDx=0;entryDy=0;entryPerimeter=0;" edge="1" parent="1" source="XwM3Bp8nAO9JLWANIdk1-78">
          <mxGeometry relative="1" as="geometry">
            <mxPoint x="1374.336" y="1816.3260000000002" as="targetPoint" />
            <Array as="points">
              <mxPoint x="1368.5" y="1816" />
            </Array>
          </mxGeometry>
        </mxCell>
        <mxCell id="XwM3Bp8nAO9JLWANIdk1-78" value="Vref" style="text;html=1;align=center;verticalAlign=middle;resizable=0;points=[];autosize=1;strokeColor=none;fillColor=none;fontFamily=Times New Roman;fontStyle=1;fontSize=16;" vertex="1" parent="1">
          <mxGeometry x="1298.5" y="1799.5" width="47" height="32" as="geometry" />
        </mxCell>
        <mxCell id="XwM3Bp8nAO9JLWANIdk1-79" value="gnd" style="text;html=1;align=center;verticalAlign=middle;resizable=0;points=[];autosize=1;strokeColor=none;fillColor=none;fontFamily=Times New Roman;fontStyle=1;fontSize=16;" vertex="1" parent="1">
          <mxGeometry x="1424.5" y="1801" width="43" height="32" as="geometry" />
        </mxCell>
        <mxCell id="XwM3Bp8nAO9JLWANIdk1-80" style="edgeStyle=orthogonalEdgeStyle;rounded=0;orthogonalLoop=1;jettySize=auto;html=1;entryX=0.497;entryY=0.291;entryDx=0;entryDy=0;entryPerimeter=0;" edge="1" parent="1" source="XwM3Bp8nAO9JLWANIdk1-79">
          <mxGeometry relative="1" as="geometry">
            <mxPoint x="1398.8229999999999" y="1816.761" as="targetPoint" />
          </mxGeometry>
        </mxCell>
        <mxCell id="XwM3Bp8nAO9JLWANIdk1-81" style="edgeStyle=orthogonalEdgeStyle;rounded=0;orthogonalLoop=1;jettySize=auto;html=1;entryX=0.502;entryY=0.812;entryDx=0;entryDy=0;entryPerimeter=0;" edge="1" parent="1" source="XwM3Bp8nAO9JLWANIdk1-82">
          <mxGeometry relative="1" as="geometry">
            <mxPoint x="1537.336" y="1817.8260000000002" as="targetPoint" />
            <Array as="points">
              <mxPoint x="1531.5" y="1817.5" />
            </Array>
          </mxGeometry>
        </mxCell>
        <mxCell id="XwM3Bp8nAO9JLWANIdk1-82" value="Vref" style="text;html=1;align=center;verticalAlign=middle;resizable=0;points=[];autosize=1;strokeColor=none;fillColor=none;fontFamily=Times New Roman;fontStyle=1;fontSize=16;" vertex="1" parent="1">
          <mxGeometry x="1461.5" y="1801" width="47" height="32" as="geometry" />
        </mxCell>
        <mxCell id="XwM3Bp8nAO9JLWANIdk1-83" value="gnd" style="text;html=1;align=center;verticalAlign=middle;resizable=0;points=[];autosize=1;strokeColor=none;fillColor=none;fontFamily=Times New Roman;fontStyle=1;fontSize=16;" vertex="1" parent="1">
          <mxGeometry x="1587.5" y="1802.5" width="43" height="32" as="geometry" />
        </mxCell>
        <mxCell id="XwM3Bp8nAO9JLWANIdk1-84" style="edgeStyle=orthogonalEdgeStyle;rounded=0;orthogonalLoop=1;jettySize=auto;html=1;entryX=0.497;entryY=0.291;entryDx=0;entryDy=0;entryPerimeter=0;" edge="1" parent="1" source="XwM3Bp8nAO9JLWANIdk1-83">
          <mxGeometry relative="1" as="geometry">
            <mxPoint x="1561.8229999999999" y="1818.261" as="targetPoint" />
          </mxGeometry>
        </mxCell>
        <mxCell id="XwM3Bp8nAO9JLWANIdk1-85" value="" style="pointerEvents=1;verticalLabelPosition=bottom;shadow=0;dashed=0;align=center;html=1;verticalAlign=top;shape=mxgraph.electrical.signal_sources.protective_earth;direction=west;flipV=1;" vertex="1" parent="1">
          <mxGeometry x="1691" y="1876" width="25" height="20" as="geometry" />
        </mxCell>
        <mxCell id="XwM3Bp8nAO9JLWANIdk1-86" value="" style="pointerEvents=1;verticalLabelPosition=bottom;shadow=0;dashed=0;align=center;html=1;verticalAlign=top;shape=mxgraph.electrical.signal_sources.protective_earth;direction=west;flipV=1;" vertex="1" parent="1">
          <mxGeometry x="1861" y="1790" width="25" height="20" as="geometry" />
        </mxCell>
        <mxCell id="XwM3Bp8nAO9JLWANIdk1-88" style="edgeStyle=orthogonalEdgeStyle;rounded=0;orthogonalLoop=1;jettySize=auto;html=1;exitX=0;exitY=0.5;exitDx=0;exitDy=0;exitPerimeter=0;entryX=1;entryY=0.5;entryDx=0;entryDy=0;entryPerimeter=0;endArrow=none;endFill=0;" edge="1" parent="1" source="XwM3Bp8nAO9JLWANIdk1-11" target="XwM3Bp8nAO9JLWANIdk1-17">
          <mxGeometry relative="1" as="geometry" />
        </mxCell>
        <mxCell id="XwM3Bp8nAO9JLWANIdk1-89" style="edgeStyle=orthogonalEdgeStyle;rounded=0;orthogonalLoop=1;jettySize=auto;html=1;entryX=0;entryY=0.5;entryDx=0;entryDy=0;entryPerimeter=0;endArrow=none;endFill=0;" edge="1" parent="1" source="XwM3Bp8nAO9JLWANIdk1-16" target="XwM3Bp8nAO9JLWANIdk1-17">
          <mxGeometry relative="1" as="geometry" />
        </mxCell>
        <mxCell id="XwM3Bp8nAO9JLWANIdk1-90" style="edgeStyle=orthogonalEdgeStyle;rounded=0;orthogonalLoop=1;jettySize=auto;html=1;exitX=1;exitY=0.5;exitDx=0;exitDy=0;exitPerimeter=0;entryX=0;entryY=0.5;entryDx=0;entryDy=0;entryPerimeter=0;endArrow=none;endFill=0;" edge="1" parent="1" source="XwM3Bp8nAO9JLWANIdk1-18" target="XwM3Bp8nAO9JLWANIdk1-19">
          <mxGeometry relative="1" as="geometry" />
        </mxCell>
        <mxCell id="XwM3Bp8nAO9JLWANIdk1-92" style="edgeStyle=orthogonalEdgeStyle;rounded=0;orthogonalLoop=1;jettySize=auto;html=1;entryX=0;entryY=0.5;entryDx=0;entryDy=0;entryPerimeter=0;endArrow=none;endFill=0;" edge="1" parent="1" source="XwM3Bp8nAO9JLWANIdk1-21" target="XwM3Bp8nAO9JLWANIdk1-22">
          <mxGeometry relative="1" as="geometry" />
        </mxCell>
        <mxCell id="XwM3Bp8nAO9JLWANIdk1-93" style="edgeStyle=orthogonalEdgeStyle;rounded=0;orthogonalLoop=1;jettySize=auto;html=1;exitX=1;exitY=0.5;exitDx=0;exitDy=0;exitPerimeter=0;entryX=0;entryY=0.5;entryDx=0;entryDy=0;entryPerimeter=0;endArrow=none;endFill=0;" edge="1" parent="1" source="XwM3Bp8nAO9JLWANIdk1-22" target="XwM3Bp8nAO9JLWANIdk1-20">
          <mxGeometry relative="1" as="geometry" />
        </mxCell>
        <mxCell id="XwM3Bp8nAO9JLWANIdk1-94" style="edgeStyle=orthogonalEdgeStyle;rounded=0;orthogonalLoop=1;jettySize=auto;html=1;entryX=0;entryY=0.5;entryDx=0;entryDy=0;entryPerimeter=0;endArrow=none;endFill=0;" edge="1" parent="1" source="XwM3Bp8nAO9JLWANIdk1-19" target="XwM3Bp8nAO9JLWANIdk1-12">
          <mxGeometry relative="1" as="geometry" />
        </mxCell>
        <mxCell id="XwM3Bp8nAO9JLWANIdk1-95" style="edgeStyle=orthogonalEdgeStyle;rounded=0;orthogonalLoop=1;jettySize=auto;html=1;entryX=1;entryY=0.5;entryDx=0;entryDy=0;entryPerimeter=0;endArrow=none;endFill=0;" edge="1" parent="1" source="XwM3Bp8nAO9JLWANIdk1-55" target="XwM3Bp8nAO9JLWANIdk1-50">
          <mxGeometry relative="1" as="geometry" />
        </mxCell>
        <mxCell id="XwM3Bp8nAO9JLWANIdk1-96" style="edgeStyle=orthogonalEdgeStyle;rounded=0;orthogonalLoop=1;jettySize=auto;html=1;entryX=1;entryY=0.5;entryDx=0;entryDy=0;entryPerimeter=0;endArrow=none;endFill=0;" edge="1" parent="1" source="XwM3Bp8nAO9JLWANIdk1-57" target="XwM3Bp8nAO9JLWANIdk1-51">
          <mxGeometry relative="1" as="geometry" />
        </mxCell>
        <mxCell id="XwM3Bp8nAO9JLWANIdk1-97" style="edgeStyle=orthogonalEdgeStyle;rounded=0;orthogonalLoop=1;jettySize=auto;html=1;entryX=0;entryY=0.5;entryDx=0;entryDy=0;entryPerimeter=0;endArrow=none;endFill=0;" edge="1" parent="1" source="XwM3Bp8nAO9JLWANIdk1-54" target="XwM3Bp8nAO9JLWANIdk1-55">
          <mxGeometry relative="1" as="geometry" />
        </mxCell>
        <mxCell id="XwM3Bp8nAO9JLWANIdk1-98" style="edgeStyle=orthogonalEdgeStyle;rounded=0;orthogonalLoop=1;jettySize=auto;html=1;entryX=0;entryY=0.5;entryDx=0;entryDy=0;entryPerimeter=0;endArrow=none;endFill=0;" edge="1" parent="1" source="XwM3Bp8nAO9JLWANIdk1-56" target="XwM3Bp8nAO9JLWANIdk1-57">
          <mxGeometry relative="1" as="geometry" />
        </mxCell>
        <mxCell id="XwM3Bp8nAO9JLWANIdk1-99" style="edgeStyle=orthogonalEdgeStyle;rounded=0;orthogonalLoop=1;jettySize=auto;html=1;entryX=0;entryY=0.5;entryDx=0;entryDy=0;entryPerimeter=0;endArrow=none;endFill=0;" edge="1" parent="1" source="XwM3Bp8nAO9JLWANIdk1-59" target="XwM3Bp8nAO9JLWANIdk1-60">
          <mxGeometry relative="1" as="geometry" />
        </mxCell>
        <mxCell id="XwM3Bp8nAO9JLWANIdk1-100" style="edgeStyle=orthogonalEdgeStyle;rounded=0;orthogonalLoop=1;jettySize=auto;html=1;entryX=1;entryY=0.5;entryDx=0;entryDy=0;entryPerimeter=0;endArrow=none;endFill=0;" edge="1" parent="1" source="XwM3Bp8nAO9JLWANIdk1-60" target="XwM3Bp8nAO9JLWANIdk1-58">
          <mxGeometry relative="1" as="geometry" />
        </mxCell>
        <mxCell id="XwM3Bp8nAO9JLWANIdk1-101" style="edgeStyle=orthogonalEdgeStyle;rounded=0;orthogonalLoop=1;jettySize=auto;html=1;entryX=0.5;entryY=0;entryDx=0;entryDy=0;entryPerimeter=0;endArrow=none;endFill=0;" edge="1" parent="1" source="XwM3Bp8nAO9JLWANIdk1-52" target="XwM3Bp8nAO9JLWANIdk1-85">
          <mxGeometry relative="1" as="geometry" />
        </mxCell>
        <mxCell id="XwM3Bp8nAO9JLWANIdk1-102" style="edgeStyle=orthogonalEdgeStyle;rounded=0;orthogonalLoop=1;jettySize=auto;html=1;entryX=0.5;entryY=0;entryDx=0;entryDy=0;entryPerimeter=0;endArrow=none;endFill=0;" edge="1" parent="1" source="XwM3Bp8nAO9JLWANIdk1-53" target="XwM3Bp8nAO9JLWANIdk1-86">
          <mxGeometry relative="1" as="geometry" />
        </mxCell>
        <mxCell id="XwM3Bp8nAO9JLWANIdk1-103" style="edgeStyle=orthogonalEdgeStyle;rounded=0;orthogonalLoop=1;jettySize=auto;html=1;entryX=0.5;entryY=0;entryDx=0;entryDy=0;entryPerimeter=0;endArrow=none;endFill=0;" edge="1" parent="1" source="XwM3Bp8nAO9JLWANIdk1-13" target="XwM3Bp8nAO9JLWANIdk1-48">
          <mxGeometry relative="1" as="geometry" />
        </mxCell>
        <mxCell id="XwM3Bp8nAO9JLWANIdk1-104" style="edgeStyle=orthogonalEdgeStyle;rounded=0;orthogonalLoop=1;jettySize=auto;html=1;entryX=0.5;entryY=0;entryDx=0;entryDy=0;entryPerimeter=0;endArrow=none;endFill=0;" edge="1" parent="1" source="XwM3Bp8nAO9JLWANIdk1-14" target="XwM3Bp8nAO9JLWANIdk1-49">
          <mxGeometry relative="1" as="geometry" />
        </mxCell>
      </root>
    </mxGraphModel>
  </diagram>
</mxfile>
